<svg xmlns="http://www.w3.org/2000/svg" viewBox="0 0 400 120">
  <path d="M35 20L20 100h15l3-20h15l3 20h15L55 20H35zm10 45l5-30 5 30H45z" fill="#000"/>
  <path d="M80 20v80h15V70h5c10 0 15-7 15-25s-5-25-15-25H80zm15 15h5c3 0 5 2 5 10s-2 10-5 10h-5V35z" fill="#000"/>
  <path d="M125 20v80h15V20h-15z" fill="#000"/>
  <path d="M150 20v80h15V70l15 30h15l-20-40 20-40h-15l-15 30V20h-15z" fill="#000"/>
  <path d="M205 20v80h15V70h5c10 0 15-7 15-25s-5-25-15-25h-20zm15 15h5c3 0 5 2 5 10s-2 10-5 10h-5V35z" fill="#000"/>
  <path d="M250 60c0 25 5 40 25 40s25-15 25-40-5-40-25-40-25 15-25 40zm15 0c0-15 2-25 10-25s10 10 10 25-2 25-10 25-10-10-10-25z" fill="#000"/>
  <path d="M310 20v80h15V70h5c10 0 15-7 15-25s-5-25-15-25h-20zm15 15h5c3 0 5 2 5 10s-2 10-5 10h-5V35z" fill="#000"/>
  <rect x="310" y="20" width="80" height="80" rx="10" fill="#ff8803"/>
  <path d="M330 35v50h15V65h10v20h15V35h-15v15h-10V35h-15z" fill="#fff"/>
  <path d="M375 35v50h15V35h-15z" fill="#fff"/>
</svg>
